<svg width="24" height="24" viewBox="0 0 24 24" fill="none" xmlns="http://www.w3.org/2000/svg">
<g clip-path="url(#clip0_4_1683)">
<path d="M19 11.23C19.4142 11.23 19.75 11.5658 19.75 11.98C19.75 12.3597 19.4678 12.6735 19.1018 12.7232L19 12.73H4.01001C3.5958 12.73 3.26001 12.3942 3.26001 11.98C3.26001 11.6003 3.54216 11.2865 3.90824 11.2368L4.01001 11.23H19Z" fill="#323232"/>
<path d="M9.48258 5.45771C9.77544 5.1648 10.2504 5.16476 10.5433 5.45763C10.8096 5.72387 10.8338 6.14053 10.616 6.43416L10.5434 6.51829L5.06195 12L10.5434 17.4817C10.8096 17.748 10.8338 18.1647 10.6159 18.4583L10.5433 18.5424C10.277 18.8086 9.86028 18.8328 9.56669 18.6149L9.48258 18.5423L3.47158 12.5303C3.20536 12.264 3.18116 11.8474 3.39897 11.5538L3.47158 11.4697L9.48258 5.45771Z" fill="#323232"/>
</g>
<defs>
<clipPath id="clip0_4_1683">
<rect width="24" height="24" fill="white"/>
</clipPath>
</defs>
</svg>
