<svg width="24" height="24" viewBox="0 0 24 24" fill="none" xmlns="http://www.w3.org/2000/svg">
<path d="M15.75 2C16.1297 2 16.4435 2.28215 16.4931 2.64822L16.5 2.75V4H18.75C20.2129 4 21.4084 5.1413 21.495 6.58243L21.5 6.75V19.75C21.5 21.2129 20.3587 22.4084 18.9176 22.495L18.75 22.5H4.75C3.28705 22.5 2.09155 21.3587 2.005 19.9176L2 19.75V6.75C2 5.28705 3.1413 4.09157 4.58243 4.00502L4.75 4H7V2.75C7 2.33579 7.33579 2 7.75 2C8.1297 2 8.44349 2.28215 8.49315 2.64822L8.5 2.75V4H15V2.75C15 2.33579 15.3358 2 15.75 2ZM20 10.5H3.5V19.75C3.5 20.3976 3.99149 20.9296 4.62212 20.9936L4.75 21H18.75C19.3976 21 19.9296 20.5085 19.9935 19.8779L20 19.75V10.5ZM7 5.5H4.75C4.10239 5.5 3.57041 5.9915 3.50644 6.62213L3.5 6.75V9H20V6.75C20 6.05921 19.4408 5.5 18.75 5.5H16.5V6.75C16.5 7.16421 16.1642 7.5 15.75 7.5C15.3703 7.5 15.0565 7.21785 15.0068 6.85178L15 6.75V5.5H8.5V6.75C8.5 7.16421 8.16421 7.5 7.75 7.5C7.3703 7.5 7.0565 7.21785 7.00684 6.85178L7 6.75V5.5Z" fill="#202020"/>
</svg>
