<svg width="24" height="24" viewBox="0 0 24 24" fill="none" xmlns="http://www.w3.org/2000/svg">
<path d="M20.75 8C21.1642 8 21.5 8.33579 21.5 8.75C21.5 9.1297 21.2179 9.44349 20.8518 9.49315L20.75 9.5H2.75C2.33579 9.5 2 9.16421 2 8.75C2 8.3703 2.28218 8.05651 2.64825 8.00685L2.75 8H20.75Z" fill="#202020"/>
<path d="M9.32001 12C9.73422 12 10.07 12.3358 10.07 12.75C10.07 13.1297 9.78789 13.4435 9.42181 13.4931L9.32001 13.5H6.75C6.33579 13.5 6 13.1642 6 12.75C6 12.3703 6.28218 12.0565 6.64825 12.0069L6.75 12H9.32001Z" fill="#202020"/>
<path d="M17.75 4H5.75C3.67879 4 2 5.67879 2 7.75V15.75C2 17.8212 3.67879 19.5 5.75 19.5H17.75C19.8212 19.5 21.5 17.8212 21.5 15.75V7.75C21.5 5.67879 19.8212 4 17.75 4ZM5.75 5.5H17.75C18.9928 5.5 20 6.50721 20 7.75V15.75C20 16.9928 18.9928 18 17.75 18H5.75C4.50721 18 3.5 16.9928 3.5 15.75V7.75C3.5 6.50721 4.50721 5.5 5.75 5.5Z" fill="#202020"/>
</svg>
