<svg width="24" height="24" viewBox="0 0 24 24" fill="none" xmlns="http://www.w3.org/2000/svg">
<path d="M11.75 2C17.1348 2 21.5 6.36522 21.5 11.75C21.5 17.1348 17.1348 21.5 11.75 21.5C6.36522 21.5 2 17.1348 2 11.75C2 6.36522 6.36522 2 11.75 2ZM15.7657 8.82257C15.4728 8.52968 14.998 8.52968 14.7051 8.82257L10.346 13.1807L8.72373 11.5586L8.63961 11.486C8.346 11.2681 7.92934 11.2923 7.66307 11.5586C7.37018 11.8515 7.37018 12.3263 7.66307 12.6192L9.81607 14.7722L9.90439 14.8532C10.2814 15.1572 10.7335 15.0078 10.9671 14.6986L11.002 14.6457L15.7657 9.88323L15.8383 9.79911C16.0562 9.5055 16.032 9.08884 15.7657 8.82257Z" fill="#9B9B9B"/>
</svg>
