<svg width="24" height="24" viewBox="0 0 24 24" fill="none" xmlns="http://www.w3.org/2000/svg">
<path d="M12 2.25C17.3848 2.25 21.75 6.61522 21.75 12C21.75 17.3848 17.3848 21.75 12 21.75C6.61522 21.75 2.25 17.3848 2.25 12C2.25 6.61522 6.61522 2.25 12 2.25ZM12 3.75C7.44365 3.75 3.75 7.44365 3.75 12C3.75 16.5563 7.44365 20.25 12 20.25C16.5563 20.25 20.25 16.5563 20.25 12C20.25 7.44365 16.5563 3.75 12 3.75ZM16.0157 9.07257C16.282 9.33884 16.3062 9.7555 16.0883 10.0491L16.0157 10.1332L11.252 14.8957L11.2171 14.9486C10.9835 15.2578 10.5314 15.4072 10.1544 15.1032L10.0661 15.0222L7.91307 12.8692C7.62018 12.5763 7.62018 12.1015 7.91307 11.8086C8.17934 11.5423 8.596 11.5181 8.88961 11.736L8.97373 11.8086L10.596 13.4307L14.9551 9.07257C15.248 8.77968 15.7228 8.77968 16.0157 9.07257Z" fill="#202020"/>
</svg>
