<svg width="24" height="24" viewBox="0 0 24 24" fill="none" xmlns="http://www.w3.org/2000/svg">
<path d="M21.0056 8.26994C23.0661 13.2433 20.7038 18.9452 15.7298 21.0059C10.7564 23.0663 5.0545 20.704 2.9938 15.7299C0.970445 10.8434 3.21464 5.25441 8.01034 3.10589L8.26969 2.9941L8.5321 2.88973C13.442 1.01737 18.9811 3.38325 21.0056 8.26994ZM8.8438 4.37988C4.63552 6.12333 2.63709 10.9476 4.37963 15.1559C6.12325 19.3646 10.9477 21.3634 15.1557 19.6201C19.3644 17.8765 21.3632 13.052 19.6199 8.84406C17.8762 4.63537 13.0518 2.63657 8.8438 4.37988ZM11.7177 7.23499C12.0974 7.23499 12.4112 7.51715 12.4609 7.88323L12.4677 7.98499V12.214L15.7642 14.2246C16.0884 14.4223 16.2094 14.8265 16.0612 15.165L16.0141 15.2554C15.8165 15.5796 15.4122 15.7007 15.0738 15.5525L14.9833 15.5054L11.3273 13.2764C11.1359 13.1597 11.0085 12.9647 10.9759 12.7467L10.9677 12.636V7.98499C10.9677 7.57078 11.3035 7.23499 11.7177 7.23499Z" fill="#202020"/>
</svg>
