<svg width="24" height="24" viewBox="0 0 24 24" fill="none" xmlns="http://www.w3.org/2000/svg">
<path fill-rule="evenodd" clip-rule="evenodd" d="M4.52778 6.80514C4.52778 5.76837 5.36825 4.9279 6.40503 4.9279H16.8258C17.8626 4.9279 18.703 5.76837 18.703 6.80514V8.54194C18.703 8.94397 19.0289 9.26988 19.431 9.26988C19.833 9.26988 20.1589 8.94397 20.1589 8.54194V6.80514C20.1589 4.96431 18.6666 3.47202 16.8258 3.47202H6.40503C4.56419 3.47202 3.0719 4.96431 3.0719 6.80514V17.2259C3.0719 19.0667 4.56419 20.559 6.40503 20.559H9.01022C9.41225 20.559 9.73816 20.2331 9.73816 19.8311C9.73816 19.4291 9.41225 19.1031 9.01022 19.1031H6.40503C5.36825 19.1031 4.52778 18.2627 4.52778 17.2259V6.80514ZM7.27347 8.68234C6.87144 8.68234 6.54553 9.00825 6.54553 9.41028C6.54553 9.81231 6.87144 10.1382 7.27347 10.1382H12.4838C12.8859 10.1382 13.2118 9.81231 13.2118 9.41028C13.2118 9.00825 12.8859 8.68234 12.4838 8.68234H7.27347ZM18.2632 12.0994C18.407 11.9557 18.602 11.8749 18.8052 11.8749C19.0085 11.8749 19.2035 11.9557 19.3473 12.0995C19.4911 12.2431 19.5723 12.4384 19.5723 12.6416C19.5723 12.8449 19.4915 13.0398 19.3476 13.1834L18.6876 13.8429C18.6823 13.848 18.677 13.8531 18.6718 13.8583C18.6667 13.8634 18.6617 13.8686 18.6567 13.8738L17.6892 14.8406L16.6062 13.7576L18.2632 12.0994ZM20.3764 14.2135L20.2164 14.3735L20.4828 14.6399C21.1778 15.3363 21.1783 16.4644 20.4833 17.1607L19.0577 18.5863C18.7735 18.8706 18.3126 18.8706 18.0283 18.5863C17.744 18.302 17.744 17.8411 18.0283 17.5568L19.4528 16.1323C19.5804 16.0043 19.5806 15.797 19.453 15.669L19.1865 15.4026L18.2223 16.3661L18.2146 16.3743L18.2041 16.3849L18.1936 16.3952L18.1848 16.4035L14.4943 20.0913C14.1951 20.3904 13.789 20.559 13.3656 20.559H11.6158C11.2137 20.559 10.8878 20.2331 10.8878 19.8311V18.0812C10.8878 17.6578 11.0561 17.2519 11.3553 16.9527L17.2334 11.0702C17.6502 10.6534 18.2157 10.419 18.8052 10.419C19.3947 10.419 19.96 10.6532 20.3768 11.0701C20.7938 11.4867 21.0281 12.0521 21.0281 12.6416C21.0281 13.2312 20.7936 13.7968 20.3764 14.2135ZM15.5771 14.7875L12.3851 17.9818C12.3587 18.0082 12.3437 18.0442 12.3437 18.0812V19.1031H13.3656C13.4026 19.1031 13.4383 19.0884 13.4647 19.062L16.6594 15.8697L15.5771 14.7875ZM6.54553 12.8839C6.54553 12.4819 6.87144 12.156 7.27347 12.156H10.7471C11.1491 12.156 11.475 12.4819 11.475 12.8839C11.475 13.2859 11.1491 13.6119 10.7471 13.6119H7.27347C6.87144 13.6119 6.54553 13.2859 6.54553 12.8839Z" fill="#202020"/>
</svg>
