<svg width="24" height="24" viewBox="0 0 24 24" fill="none" xmlns="http://www.w3.org/2000/svg">
<path d="M6.5 7.25C6.91421 7.25 7.25 7.58579 7.25 8C7.25 8.3797 6.96785 8.69349 6.60177 8.74315L6.5 8.75H5C4.08183 8.75 3.32881 9.45711 3.2558 10.3565L3.25 10.5V17.5C3.25 18.4182 3.95711 19.1712 4.85647 19.2442L5 19.25H16C16.9182 19.25 17.6712 18.5429 17.7442 17.6435L17.75 17.5V16C17.75 15.5858 18.0858 15.25 18.5 15.25C18.8797 15.25 19.1935 15.5322 19.2432 15.8982L19.25 16V17.5C19.25 19.233 17.8935 20.6492 16.1844 20.7449L16 20.75H5C3.26697 20.75 1.85075 19.3935 1.75514 17.6844L1.75 17.5V10.5C1.75 8.76697 3.10645 7.35075 4.81558 7.25514L5 7.25H6.5Z" fill="#3D414B"/>
<path d="M19 3.25C20.7949 3.25 22.25 4.70507 22.25 6.5V13.5C22.25 15.2949 20.7949 16.75 19 16.75H9C7.20507 16.75 5.75 15.2949 5.75 13.5V6.5C5.75 4.70507 7.20507 3.25 9 3.25H19ZM8.75 5C7.7835 5 7 5.7835 7 6.75V13.75C7 14.7165 7.7835 15.5 8.75 15.5H18.75C19.7165 15.5 20.5 14.7165 20.5 13.75V6.75C20.5 5.7835 19.7165 5 18.75 5H8.75Z" fill="#3D414B"/>
<path d="M21.5 7.25C21.9142 7.25 22.25 7.58579 22.25 8C22.25 8.3797 21.9678 8.69349 21.6018 8.74315L21.5 8.75H6.5C6.08579 8.75 5.75 8.41421 5.75 8C5.75 7.6203 6.03215 7.30651 6.39823 7.25685L6.5 7.25H21.5Z" fill="#3D414B"/>
<path d="M12 11.25C12.4142 11.25 12.75 11.5858 12.75 12C12.75 12.3797 12.4678 12.6935 12.1018 12.7432L12 12.75H10C9.58579 12.75 9.25 12.4142 9.25 12C9.25 11.6203 9.53215 11.3065 9.89823 11.2568L10 11.25H12Z" fill="#3D414B"/>
</svg>
