<svg width="24" height="24" viewBox="0 0 24 24" fill="none" xmlns="http://www.w3.org/2000/svg">
<path d="M13.2504 18.6454C12.7651 18.508 12.3356 18.2419 11.9994 17.8847C11.6632 18.2416 11.2344 18.5081 10.7494 18.6454V19.0029C10.7495 19.4173 11.085 19.7528 11.4994 19.7529H12.5004C12.9147 19.7527 13.2503 19.4172 13.2504 19.0029V18.6454ZM15.2513 5.38959C14.5802 4.96773 13.8009 4.74289 13.0033 4.74603H10.9965C10.1988 4.74287 9.41953 4.96776 8.74841 5.38959V5.99701C8.74841 7.25093 7.90834 8.30635 6.76111 8.63763C6.75132 8.75579 6.74659 8.87438 6.74744 8.9931V15.0009C6.74744 16.2442 7.75514 17.2518 8.99841 17.2519H9.99939C10.6467 17.2517 11.1793 16.7602 11.2435 16.1298L11.2494 16.0019V13.7499H10.9994C10.5852 13.7499 10.2494 13.4142 10.2494 12.9999C10.2495 12.5858 10.5853 12.2499 10.9994 12.2499H13.0004C13.4144 12.25 13.7502 12.5859 13.7504 12.9999C13.7504 13.4141 13.4145 13.7499 13.0004 13.7499H12.7494V16.0019L12.7562 16.1298C12.8205 16.7603 13.353 17.2518 14.0004 17.2519H15.0013C16.2445 17.2517 17.2523 16.2441 17.2523 15.0009V8.9931L17.2484 8.78119C17.2462 8.73324 17.2416 8.68546 17.2377 8.63763C16.0908 8.3061 15.2513 7.25066 15.2513 5.99701V5.38959ZM16.7513 5.99701C16.7513 6.68783 17.3115 7.24799 18.0023 7.24799C18.6931 7.24797 19.2533 6.68782 19.2533 5.99701V3.99603C19.2531 3.85792 19.1405 3.74603 19.0023 3.74603H17.0023C16.8642 3.74603 16.7516 3.85792 16.7513 3.99603V5.99701ZM4.74646 5.99701C4.74646 6.68783 5.30662 7.24799 5.99744 7.24799C6.68819 7.24791 7.24841 6.68778 7.24841 5.99701V3.99603C7.24819 3.85792 7.1356 3.74603 6.99744 3.74603H4.99646C4.85849 3.74626 4.74668 3.85806 4.74646 3.99603V5.99701ZM20.7533 5.99701C20.7533 7.26017 19.9008 8.32157 18.7406 8.64447C18.7475 8.76248 18.7531 8.88061 18.7523 8.99896V15.0009C18.7523 16.39 17.9965 17.6015 16.8744 18.2499L17.7133 20.7665L17.7338 20.8408C17.8167 21.2116 17.6069 21.592 17.2386 21.7148C16.8705 21.8374 16.4748 21.6588 16.3187 21.3124L16.2904 21.2411L15.4515 18.7245C15.3039 18.7422 15.1537 18.7519 15.0013 18.7519H14.7504V19.0029C14.7503 20.2457 13.7431 21.2527 12.5004 21.2529H11.4994C10.2565 21.2528 9.24948 20.2457 9.24939 19.0029V18.7519H8.99841C8.84568 18.7519 8.69519 18.7423 8.54724 18.7245L7.70935 21.2411L7.68103 21.3124C7.52491 21.6589 7.12843 21.8375 6.76013 21.7148C6.36748 21.5836 6.15561 21.1593 6.2865 20.7665L7.12439 18.2499C6.00265 17.6015 5.24744 16.3898 5.24744 15.0009V8.99896C5.24669 8.88032 5.25023 8.76179 5.2572 8.64349C4.09794 8.31995 3.24646 7.25948 3.24646 5.99701V3.99603C3.24669 3.02963 4.03006 2.24626 4.99646 2.24603H6.99744C7.86742 2.24603 8.5863 2.88123 8.72205 3.71283C9.43656 3.40421 10.2114 3.24331 10.9994 3.24603H13.0004C13.7877 3.24334 14.5617 3.40465 15.2758 3.71283C15.4114 2.88109 16.1322 2.24603 17.0023 2.24603H19.0023C19.9689 2.24603 20.7531 3.0295 20.7533 3.99603V5.99701Z" fill="#202020"/>
<path d="M14.0984 8.50342C14.2951 8.52266 14.4816 8.59988 14.6345 8.72509L14.7078 8.7915L14.7752 8.86474C14.9003 9.0175 14.9765 9.20438 14.9959 9.40088L15.0007 9.50049C14.9998 10.0522 14.5525 10.4986 14.0007 10.4985C13.4488 10.4983 13.0012 10.0514 13.0007 9.49951C13.0005 8.9475 13.4478 8.49924 13.9998 8.49853L14.0984 8.50342ZM14.4998 9.49951H14.2507L14.0007 9.49853L14.4998 9.49951ZM14.4998 9.49951H14.2507L14.0007 9.49853L14.4998 9.49951Z" fill="#202020"/>
<path d="M10.0967 8.50342C10.2934 8.52266 10.48 8.59988 10.6329 8.72509L10.7061 8.7915L10.7735 8.86474C10.8986 9.0175 10.9749 9.20438 10.9942 9.40088L10.9991 9.50049C10.9982 10.0179 10.6047 10.4429 10.1006 10.4936L9.99907 10.4985C9.44718 10.4983 8.99949 10.0514 8.99907 9.49951C8.99884 8.9475 9.44609 8.49924 9.9981 8.49853L10.0967 8.50342ZM10.4981 9.49951H10.2491L9.99907 9.49853L10.4981 9.49951ZM10.4981 9.49951H10.2491L9.99907 9.49853L10.4981 9.49951Z" fill="#202020"/>
</svg>
