<svg width="24" height="24" viewBox="0 0 24 24" fill="none" xmlns="http://www.w3.org/2000/svg">
<path fill-rule="evenodd" clip-rule="evenodd" d="M16.9283 4.79713L16.9283 4.79711C16.9915 4.73391 17.092 4.7349 17.1534 4.79645L17.1541 4.79713L19.202 6.8451C19.2652 6.90832 19.2643 7.00883 19.2027 7.07023L19.202 7.07093L17.2307 9.04236L14.9569 6.76859L16.9283 4.79713ZM13.8963 7.82929L4.79692 16.9294L4.79549 16.9308C4.76731 16.9588 4.75 16.9989 4.75 17.0423V19.2501H6.95778C7.00117 19.2501 7.04124 19.2328 7.06927 19.2046L7.07066 19.2032L16.1701 10.1031L13.8963 7.82929ZM4 20.7501H6.95778C7.3962 20.7501 7.81979 20.5766 8.13194 20.2632L8.13275 20.2624L20.262 8.13224C20.9119 7.484 20.9109 6.43269 20.2627 5.78444L18.2154 3.73715L18.2147 3.73647C17.5664 3.08724 16.5156 3.08844 15.8676 3.73647L15.8676 3.73649L3.73766 15.8673L3.73689 15.8681C3.42347 16.1802 3.25 16.6038 3.25 17.0423V20.0001C3.25 20.4143 3.58579 20.7501 4 20.7501Z" fill="#202020"/>
</svg>
