<svg width="24" height="24" viewBox="0 0 24 24" fill="none" xmlns="http://www.w3.org/2000/svg">
<path fill-rule="evenodd" clip-rule="evenodd" d="M7 2.25C4.92893 2.25 3.25 3.92893 3.25 6V18C3.25 20.0711 4.92893 21.75 7 21.75H17C19.0711 21.75 20.75 20.0711 20.75 18V8.5V8.24264C20.75 7.24808 20.3549 6.29425 19.6516 5.59099L17.409 3.34835C16.7057 2.64509 15.7519 2.25 14.7574 2.25H14.5H7ZM13.75 3.75H7C5.75736 3.75 4.75 4.75736 4.75 6V18C4.75 19.2426 5.75736 20.25 7 20.25H17C18.2426 20.25 19.25 19.2426 19.25 18V9.25H16.5C14.9812 9.25 13.75 8.01878 13.75 6.5V3.75ZM19.1954 7.75H16.5C15.8096 7.75 15.25 7.19036 15.25 6.5V3.80459C15.6627 3.89721 16.0445 4.10517 16.3484 4.40901L18.591 6.65165C18.8948 6.95549 19.1028 7.33727 19.1954 7.75ZM7.25 16.5C7.25 16.0858 7.58579 15.75 8 15.75H16C16.4142 15.75 16.75 16.0858 16.75 16.5C16.75 16.9142 16.4142 17.25 16 17.25H8C7.58579 17.25 7.25 16.9142 7.25 16.5ZM8 12.25C7.58579 12.25 7.25 12.5858 7.25 13C7.25 13.4142 7.58579 13.75 8 13.75H16C16.4142 13.75 16.75 13.4142 16.75 13C16.75 12.5858 16.4142 12.25 16 12.25H8Z" fill="#202020"/>
</svg>
