<svg width="24" height="24" viewBox="0 0 24 24" fill="none" xmlns="http://www.w3.org/2000/svg">
<path fill-rule="evenodd" clip-rule="evenodd" d="M12.8319 3.85058C13.1906 4.05768 13.3135 4.51638 13.1064 4.87509L9.8854 10.454L12.4081 14.8234C13.571 14.5287 14.8343 15.0249 15.4638 16.1152C16.2232 17.4305 15.7726 19.1124 14.4572 19.8718C13.1419 20.6312 11.4601 20.1805 10.7007 18.8652C10.0714 17.7752 10.2731 16.4335 11.1092 15.5736L9.01937 11.954L6.92978 15.5733C7.76635 16.4331 7.96826 17.7752 7.33882 18.8654C6.57942 20.1807 4.89755 20.6314 3.58225 19.872C2.26694 19.1126 1.81628 17.4308 2.57568 16.1154C3.20501 15.0254 4.4679 14.5292 5.63066 14.8234L8.15335 10.454L4.93236 4.87509C4.72525 4.51638 4.84816 4.05768 5.20688 3.85058C5.56559 3.64347 6.02429 3.76638 6.23139 4.12509L9.01937 8.95402L11.8074 4.12509C12.0145 3.76638 12.4732 3.64347 12.8319 3.85058ZM14.9999 4.49999C14.9999 4.08578 15.3357 3.74999 15.7499 3.74999H20.7499C20.9489 3.74999 21.1396 3.82901 21.2803 3.96966C21.4209 4.11031 21.4999 4.30108 21.4999 4.49999V19.5C21.4999 19.9142 21.1642 20.25 20.7499 20.25C20.3357 20.25 19.9999 19.9142 19.9999 19.5V12.75H15.7499C15.3357 12.75 14.9999 12.4142 14.9999 12C14.9999 11.5858 15.3357 11.25 15.7499 11.25H19.9999V8.99877H15.7499C15.3357 8.99877 14.9999 8.66298 14.9999 8.24877C14.9999 7.83456 15.3357 7.49877 15.7499 7.49877H19.9999V5.24999H15.7499C15.3357 5.24999 14.9999 4.9142 14.9999 4.49999ZM13.7072 18.5727C13.1094 18.9179 12.3449 18.7131 11.9997 18.1152C11.6545 17.5173 11.8594 16.7528 12.4572 16.4077C13.0551 16.0625 13.8196 16.2673 14.1648 16.8652C14.51 17.4631 14.3051 18.2276 13.7072 18.5727ZM4.33225 18.573C3.73438 18.2278 3.52954 17.4633 3.87471 16.8654C4.21989 16.2676 4.98438 16.0627 5.58225 16.4079C6.18011 16.7531 6.38496 17.5176 6.03978 18.1154C5.6946 18.7133 4.93011 18.9182 4.33225 18.573Z" fill="#202020"/>
</svg>
