<svg width="24" height="24" viewBox="0 0 24 24" fill="none" xmlns="http://www.w3.org/2000/svg">
<path d="M12.9022 11.1482C12.8525 10.7822 12.5387 10.5 12.159 10.5H11.009L10.9072 10.5069C10.5412 10.5565 10.259 10.8703 10.259 11.25L10.2659 11.3518C10.3155 11.7179 10.6293 12 11.009 12H11.409V14.75H11L10.8982 14.7569C10.5321 14.8065 10.25 15.1203 10.25 15.5C10.25 15.9142 10.5858 16.25 11 16.25H13.31L13.4118 16.2432C13.7778 16.1935 14.06 15.8797 14.06 15.5C14.06 15.0858 13.7242 14.75 13.31 14.75H12.909V11.25L12.9022 11.1482Z" fill="#202020"/>
<path d="M12.8497 8.22453C12.8373 7.68315 12.3944 7.248 11.85 7.248C11.8443 7.248 11.8386 7.24806 11.833 7.24819C11.2887 7.25732 10.8501 7.70155 10.8501 8.24805C10.8501 8.80026 11.2979 9.24805 11.8501 9.24805C12.4023 9.24805 12.8501 8.80026 12.8501 8.24805C12.8501 8.24018 12.85 8.23234 12.8497 8.22453Z" fill="#202020"/>
<path fill-rule="evenodd" clip-rule="evenodd" d="M21.75 12C21.75 6.61522 17.3848 2.25 12 2.25C6.61522 2.25 2.25 6.61522 2.25 12C2.25 17.3848 6.61522 21.75 12 21.75C17.3848 21.75 21.75 17.3848 21.75 12ZM3.75 12C3.75 7.44365 7.44365 3.75 12 3.75C16.5563 3.75 20.25 7.44365 20.25 12C20.25 16.5563 16.5563 20.25 12 20.25C7.44365 20.25 3.75 16.5563 3.75 12Z" fill="#202020"/>
</svg>
