<svg width="24" height="24" viewBox="0 0 24 24" fill="none" xmlns="http://www.w3.org/2000/svg">
<path d="M16.75 9H6.75C5.23079 9 4 10.2308 4 11.75V18.75C4 20.2692 5.23079 21.5 6.75 21.5H16.75C18.2692 21.5 19.5 20.2692 19.5 18.75V11.75C19.5 10.2308 18.2692 9 16.75 9ZM6.75 10.5H16.75C17.4408 10.5 18 11.0592 18 11.75V18.75C18 19.4408 17.4408 20 16.75 20H6.75C6.05921 20 5.5 19.4408 5.5 18.75V11.75C5.5 11.0592 6.05921 10.5 6.75 10.5Z" fill="#202020"/>
<path d="M11.75 2C14.3003 2 16.3814 4.01028 16.4951 6.53259L16.5 6.75V9.75C16.5 10.1642 16.1642 10.5 15.75 10.5C15.3703 10.5 15.0565 10.2179 15.0068 9.85178L15 9.75V6.75C15 4.95521 13.5448 3.5 11.75 3.5C10.0171 3.5 8.60075 4.85659 8.50513 6.5656L8.5 6.75V9.75C8.5 10.1642 8.16421 10.5 7.75 10.5C7.3703 10.5 7.0565 10.2179 7.00684 9.85178L7 9.75V6.75C7 4.12679 9.12679 2 11.75 2Z" fill="#202020"/>
</svg>
