<svg width="24" height="24" viewBox="0 0 24 24" fill="none" xmlns="http://www.w3.org/2000/svg">
<path fill-rule="evenodd" clip-rule="evenodd" d="M21.75 12C21.75 6.61522 17.3848 2.25 12 2.25C6.61522 2.25 2.25 6.61522 2.25 12C2.25 17.3848 6.61522 21.75 12 21.75C17.3848 21.75 21.75 17.3848 21.75 12ZM3.75 12C3.75 7.44365 7.44365 3.75 12 3.75C16.5563 3.75 20.25 7.44365 20.25 12C20.25 16.5563 16.5563 20.25 12 20.25C7.44365 20.25 3.75 16.5563 3.75 12ZM14.1376 6.92156C14.7011 7.03991 15.026 7.76387 14.8633 8.53857C14.7007 9.31326 14.112 9.84534 13.5486 9.72699C12.9851 9.60864 12.6602 8.88468 12.8228 8.10998C12.9855 7.33529 13.5741 6.80321 14.1376 6.92156ZM11.3692 8.11889C11.5342 8.8858 11.2116 9.60567 10.6487 9.72678C10.0858 9.84788 9.49582 9.32435 9.33088 8.55744C9.16594 7.79053 9.48853 7.07065 10.0514 6.94955C10.6143 6.82844 11.2043 7.35197 11.3692 8.11889ZM8.76464 10.1861C9.05192 10.9291 8.84948 11.6999 8.31247 11.9076C7.77546 12.1152 7.10725 11.6812 6.81997 10.9381C6.53269 10.195 6.73513 9.42429 7.27214 9.21661C7.80915 9.00893 8.47736 9.44296 8.76464 10.1861ZM17.1837 11.1659C17.469 10.4171 17.2641 9.64375 16.7261 9.43869C16.1881 9.23364 15.5207 9.67449 15.2354 10.4234C14.95 11.1722 15.1549 11.9455 15.6929 12.1506C16.2309 12.3556 16.8984 11.9148 17.1837 11.1659ZM14.0922 17.2767C13.5924 17.2798 13.1062 17.1142 12.7122 16.8067C12.5391 16.6769 12.3286 16.6067 12.1122 16.6067C11.8959 16.6067 11.6853 16.6769 11.5123 16.8067C11.2722 17.0016 10.9944 17.1447 10.6964 17.2269C10.3984 17.3092 10.0865 17.3289 9.7805 17.2847C9.47449 17.2406 9.18092 17.1336 8.91829 16.9704C8.65566 16.8072 8.42966 16.5915 8.2545 16.3367C8.07934 16.0819 7.95882 15.7936 7.90053 15.49C7.84223 15.1864 7.84742 14.8739 7.91579 14.5724C7.98415 14.2709 8.11417 13.9868 8.29771 13.7379C8.48125 13.4891 8.71434 13.281 8.98225 13.1267C9.46149 12.8436 9.84735 12.4265 10.0922 11.9267C10.2782 11.5467 10.567 11.2266 10.9259 11.0027C11.2847 10.7787 11.6992 10.66 12.1222 10.66C12.5452 10.66 12.9597 10.7787 13.3186 11.0027C13.6775 11.2266 13.9663 11.5467 14.1522 11.9267C14.3899 12.4224 14.7692 12.8365 15.2422 13.1167C15.6617 13.3688 15.9871 13.7513 16.1687 14.2058C16.3502 14.6604 16.3779 15.1618 16.2475 15.6335C16.1171 16.1053 15.8358 16.5213 15.4465 16.8181C15.0573 17.1148 14.5817 17.2759 14.0922 17.2767ZM12.5246 12.2752C12.6441 12.3499 12.7406 12.4563 12.8032 12.5826C13.1684 13.3405 13.7489 13.9741 14.4722 14.404C14.6096 14.4873 14.7161 14.613 14.7757 14.7622C14.8356 14.9123 14.8448 15.078 14.8017 15.2339C14.7586 15.3897 14.6657 15.5272 14.5371 15.6252C14.4085 15.7232 14.2514 15.7764 14.0897 15.7767L14.0828 15.7767C13.9207 15.7778 13.763 15.724 13.6352 15.6243L13.6238 15.6154L13.6122 15.6067C13.1795 15.2822 12.6532 15.1067 12.1122 15.1067C11.5712 15.1067 11.0449 15.2822 10.6123 15.6067L10.5892 15.624L10.5668 15.6422C10.4875 15.7065 10.3957 15.7538 10.2973 15.781C10.1988 15.8082 10.0958 15.8147 9.99469 15.8001C9.8936 15.7855 9.79661 15.7502 9.70984 15.6963C9.62311 15.6424 9.54844 15.5711 9.49056 15.4869C9.4327 15.4028 9.39289 15.3075 9.37363 15.2072C9.35436 15.1069 9.35608 15.0037 9.37866 14.9041C9.40126 14.8044 9.44423 14.7105 9.50482 14.6284C9.56542 14.5462 9.64243 14.4775 9.73099 14.4264L9.73804 14.4224L9.74504 14.4182C10.4765 13.9862 11.0655 13.3495 11.4392 12.5867L11.4396 12.586C11.5021 12.4582 11.5992 12.3505 11.7199 12.2752C11.8406 12.2 11.9799 12.16 12.1222 12.16C12.2645 12.16 12.4039 12.2 12.5246 12.2752Z" fill="#202020"/>
</svg>
