<svg width="24" height="24" viewBox="0 0 24 24" fill="none" xmlns="http://www.w3.org/2000/svg">
<path fill-rule="evenodd" clip-rule="evenodd" d="M7.99 3.75C7.59982 3.75 7.23253 3.93193 6.99652 4.2416L6.99633 4.24186L5.41112 6.32007H18.5889L17.0037 4.24186L17.0035 4.2416C16.7675 3.93193 16.4002 3.75 16.01 3.75H7.99ZM19.35 7.82007H4.65V19C4.65 19.6908 5.20922 20.25 5.9 20.25H18.1C18.7908 20.25 19.35 19.6908 19.35 19V7.82007ZM5.80368 3.33214C6.32368 2.64997 7.13229 2.25 7.99 2.25H16.01C16.8677 2.25 17.6763 2.64997 18.1963 3.33214L18.1965 3.3324L20.2859 6.07154C20.6522 6.55079 20.85 7.13796 20.85 7.74V19C20.85 20.5192 19.6192 21.75 18.1 21.75H5.9C4.38079 21.75 3.15 20.5192 3.15 19V7.74C3.15 7.13739 3.34814 6.55173 3.71351 6.07236L3.71368 6.07214L5.80348 3.3324L5.80361 3.33223L5.80368 3.33214ZM8.0001 9.25C8.41431 9.25 8.7501 9.58579 8.7501 10C8.7501 11.7948 10.2053 13.25 12.0001 13.25C13.7949 13.25 15.2501 11.7948 15.2501 10C15.2501 9.58579 15.5859 9.25 16.0001 9.25C16.4143 9.25 16.7501 9.58579 16.7501 10C16.7501 12.6232 14.6233 14.75 12.0001 14.75C9.37689 14.75 7.2501 12.6232 7.2501 10C7.2501 9.58579 7.58589 9.25 8.0001 9.25Z" fill="#202020"/>
</svg>
