<svg width="24" height="24" viewBox="0 0 24 24" fill="none" xmlns="http://www.w3.org/2000/svg">
<path d="M11.787 8L12.0443 8.0076C13.4993 8.0938 14.8175 8.9059 15.5484 10.1707L16.4684 11.7628C17.0232 12.7231 17.793 13.5432 18.7363 14.1722L18.9207 14.3041C19.9154 15.0608 20.501 16.2402 20.5008 17.5139L20.4947 17.7197C20.3763 19.8363 18.6227 21.5 16.494 21.5H16.1C15.0378 21.5 14.0181 21.0777 13.2667 20.3263L12.9277 19.9873C12.6159 19.6755 12.1924 19.5 11.7808 19.4994L11.6195 19.5052C11.2259 19.5365 10.8547 19.7076 10.5744 19.9873L10.2354 20.3263C9.48367 21.078 8.46487 21.5 7.40197 21.5H7.00799C4.79478 21.5 3.00097 19.7062 3.00134 17.4696L3.00879 17.243C3.08673 15.9956 3.74364 14.8539 4.78601 14.159L4.84283 14.1211C5.73382 13.5268 6.48166 12.7427 7.03094 11.826L8.06087 10.11C8.84657 8.801 10.2608 8 11.787 8ZM4.25 7C5.49264 7 6.5 8.0074 6.5 9.25C6.5 10.4926 5.49264 11.5 4.25 11.5C3.00736 11.5 2 10.4926 2 9.25C2 8.0074 3.00736 7 4.25 7ZM19.251 7C20.4936 7 21.501 8.0074 21.501 9.25C21.501 10.4926 20.4936 11.5 19.251 11.5C18.0084 11.5 17.001 10.4926 17.001 9.25C17.001 8.0074 18.0084 7 19.251 7ZM8.53697 2C9.77967 2 10.787 3.00736 10.787 4.25C10.787 5.49264 9.77967 6.5 8.53697 6.5C7.29434 6.5 6.28698 5.49264 6.28698 4.25C6.28698 3.00736 7.29434 2 8.53697 2ZM14.9651 2C16.2077 2 17.2151 3.00736 17.2151 4.25C17.2151 5.49264 16.2077 6.5 14.9651 6.5C13.7224 6.5 12.7151 5.49264 12.7151 4.25C12.7151 3.00736 13.7224 2 14.9651 2Z" fill="#9B9B9B"/>
</svg>
