<svg width="24" height="24" viewBox="0 0 24 24" fill="none" xmlns="http://www.w3.org/2000/svg">
<path d="M11.787 8L12.0443 8.00761C13.4993 8.09383 14.8175 8.9059 15.5484 10.1707L16.4684 11.7628C17.0232 12.7231 17.793 13.5432 18.7363 14.1722L18.9207 14.3041C19.9154 15.0608 20.501 16.2402 20.5007 17.5139L20.4947 17.7197C20.3763 19.8363 18.6227 21.5 16.494 21.5H16.1C15.0377 21.5 14.0181 21.0777 13.2667 20.3263L12.9277 19.9873C12.6158 19.6755 12.1924 19.5 11.7808 19.4994L11.6194 19.5052C11.2258 19.5365 10.8547 19.7076 10.5743 19.9873L10.2354 20.3263C9.4837 21.078 8.46489 21.5 7.40198 21.5H7.008C4.79478 21.5 3.00098 19.7062 3.00134 17.4696L3.00879 17.243C3.08674 15.9956 3.74364 14.8539 4.78601 14.159L4.84283 14.1211C5.73383 13.5268 6.48167 12.7427 7.03094 11.826L8.06091 10.11C8.84656 8.80102 10.2608 8 11.787 8ZM11.787 9.5C10.7877 9.5 9.86167 10.0245 9.34705 10.882L8.31732 12.5975C7.65394 13.7046 6.75086 14.6515 5.67505 15.369L5.61804 15.407C4.96573 15.8419 4.55461 16.5565 4.50696 17.3131L4.50098 17.493C4.50098 18.8778 5.62321 20 7.008 20H7.40198C8.06705 20 8.70433 19.736 9.17468 19.2657L9.51428 18.9261C10.0473 18.3942 10.7518 18.0695 11.5302 18.0082L11.751 18C12.5903 18 13.3953 18.3336 13.9883 18.9267L14.3273 19.2657C14.7974 19.7357 15.4355 20 16.1 20H16.494C17.8257 20 18.923 18.959 18.9962 17.6569L19.001 17.493C19.001 16.7091 18.6346 15.9712 18.0313 15.5118L17.5855 15.1983C16.6026 14.4822 15.7789 13.5678 15.1696 12.5133L14.2496 10.9212C13.7712 10.0933 12.9078 9.56141 11.9777 9.50597L11.787 9.5ZM4.25 7C5.49264 7 6.5 8.00736 6.5 9.25C6.5 10.4926 5.49264 11.5 4.25 11.5C3.00736 11.5 2 10.4926 2 9.25C2 8.00736 3.00736 7 4.25 7ZM19.251 7C20.4936 7 21.501 8.00736 21.501 9.25C21.501 10.4926 20.4936 11.5 19.251 11.5C18.0083 11.5 17.001 10.4926 17.001 9.25C17.001 8.00736 18.0083 7 19.251 7ZM4.25 8.5C3.83579 8.5 3.5 8.83579 3.5 9.25C3.5 9.66421 3.83579 10 4.25 10C4.66421 10 5 9.66421 5 9.25C5 8.83579 4.66421 8.5 4.25 8.5ZM19.251 8.5C18.8368 8.5 18.501 8.83579 18.501 9.25C18.501 9.66421 18.8368 10 19.251 10C19.6652 10 20.001 9.66421 20.001 9.25C20.001 8.83579 19.6652 8.5 19.251 8.5ZM8.53699 2C7.29435 2 6.28699 3.00736 6.28699 4.25C6.28699 5.49264 7.29435 6.5 8.53699 6.5C9.77963 6.5 10.787 5.49264 10.787 4.25C10.787 3.00736 9.77963 2 8.53699 2ZM8.53699 3.5C8.9512 3.5 9.28699 3.83579 9.28699 4.25C9.28699 4.66421 8.9512 5 8.53699 5C8.12277 5 7.78699 4.66421 7.78699 4.25C7.78699 3.83579 8.12277 3.5 8.53699 3.5ZM14.965 2C13.7224 2 12.715 3.00736 12.715 4.25C12.715 5.49264 13.7224 6.5 14.965 6.5C16.2077 6.5 17.215 5.49264 17.215 4.25C17.215 3.00736 16.2077 2 14.965 2ZM14.965 3.5C15.3792 3.5 15.715 3.83579 15.715 4.25C15.715 4.66421 15.3792 5 14.965 5C14.5508 5 14.215 4.66421 14.215 4.25C14.215 3.83579 14.5508 3.5 14.965 3.5Z" fill="#202020"/>
</svg>
