<svg width="24" height="24" viewBox="0 0 24 24" fill="none" xmlns="http://www.w3.org/2000/svg">
<path fill-rule="evenodd" clip-rule="evenodd" d="M12.7501 3.59998C12.7501 3.18578 12.4141 2.84998 12.0001 2.84998C11.5861 2.84998 11.2501 3.18578 11.2501 3.59998V11.25H3.6001C3.1851 11.25 2.8501 11.5858 2.8501 12C2.8501 12.4143 3.1851 12.75 3.6001 12.75H11.2501V20.4C11.2501 20.8143 11.5861 21.15 12.0001 21.15C12.4141 21.15 12.7501 20.8143 12.7501 20.4V12.75H20.4001C20.8141 12.75 21.1501 12.4143 21.1501 12C21.1501 11.5858 20.8141 11.25 20.4001 11.25H12.7501V3.59998Z" fill="#202020"/>
</svg>
