<svg width="24" height="24" viewBox="0 0 24 24" fill="none" xmlns="http://www.w3.org/2000/svg">
<path d="M17.0025 9.24893L17.0786 9.25284C17.4569 9.29113 17.7524 9.61062 17.7525 9.99893C17.7525 10.3873 17.4569 10.7067 17.0786 10.745L17.0025 10.7489H13.0005C12.5863 10.7489 12.2505 10.4131 12.2505 9.99893C12.2506 9.58481 12.5864 9.24893 13.0005 9.24893H17.0025Z" fill="#202020"/>
<path d="M9.26655 8.32906C9.5743 8.05222 10.048 8.07721 10.3251 8.38472C10.6023 8.69249 10.5782 9.16709 10.2705 9.44429L8.4189 11.1103C8.13357 11.3672 7.70025 11.3673 7.41499 11.1103L6.49605 10.2822C6.18831 10.0049 6.16312 9.53034 6.44038 9.22261C6.70026 8.93417 7.13372 8.89463 7.44038 9.11909L7.49995 9.16792L7.91694 9.5439L9.26655 8.32906Z" fill="#202020"/>
<path d="M20.2542 9.99915V7.99817C20.2541 5.65002 18.3503 3.74645 16.0022 3.74622H7.99829C5.65003 3.74629 3.74641 5.64991 3.74634 7.99817V16.0021C3.74658 18.3502 5.65014 20.254 7.99829 20.254H10.9993L11.0764 20.2579C11.4546 20.2964 11.7493 20.6157 11.7493 21.004C11.7491 21.3922 11.4545 21.7117 11.0764 21.7501L10.9993 21.754H7.99829C4.82171 21.754 2.24658 19.1786 2.24634 16.0021V7.99817C2.24641 4.82148 4.82161 2.24629 7.99829 2.24622H16.0022C19.1787 2.24645 21.7541 4.82159 21.7542 7.99817V9.99915C21.7541 10.4132 21.4182 10.749 21.0042 10.7491C20.5899 10.7491 20.2542 10.4134 20.2542 9.99915Z" fill="#202020"/>
<path d="M9.26655 13.3311C9.5743 13.0543 10.048 13.0793 10.3251 13.3868C10.6023 13.6946 10.5782 14.1692 10.2705 14.4464L8.4189 16.1124C8.13357 16.3693 7.70025 16.3694 7.41499 16.1124L6.49605 15.2843C6.18831 15.007 6.16312 14.5324 6.44038 14.2247C6.70026 13.9362 7.13371 13.8967 7.44038 14.1212L7.49995 14.17L7.91694 14.546L9.26655 13.3311Z" fill="#202020"/>
<path d="M20.2539 20.003C20.2538 18.7598 19.2452 17.752 18.002 17.752C16.7589 17.7522 15.7512 18.7599 15.751 20.003C15.751 20.1412 15.8629 20.2538 16.001 20.254H20.003C20.1413 20.254 20.2539 20.1413 20.2539 20.003ZM21.7539 20.003C21.7539 20.9697 20.9697 21.754 20.003 21.754H16.001C15.0345 21.7538 14.251 20.9696 14.251 20.003C14.2512 17.9315 15.9304 16.2522 18.002 16.252C20.0737 16.252 21.7538 17.9314 21.7539 20.003Z" fill="#202020"/>
<path d="M18.1 13.0055C18.2967 13.0247 18.4833 13.102 18.6362 13.2272L18.7094 13.2936L18.7758 13.3668C18.922 13.545 19.0026 13.7691 19.0024 14.0016C19.0017 14.5535 18.5543 15.0007 18.0024 15.0006C17.4505 15.0004 17.0028 14.5534 17.0024 14.0016C17.0021 13.4496 17.4494 13.0013 18.0014 13.0006L18.1 13.0055Z" fill="#202020"/>
<path d="M21.1013 14.0059C21.298 14.0252 21.4845 14.1024 21.6374 14.2276L21.7107 14.294L21.7771 14.3672C21.9232 14.5455 22.0038 14.7695 22.0036 15.002C22.0029 15.554 21.5556 16.0011 21.0036 16.001C20.4517 16.0008 20.004 15.5539 20.0036 15.002C20.0034 14.45 20.4506 14.0017 21.0027 14.001L21.1013 14.0059Z" fill="#202020"/>
<path d="M15.0988 14.0059C15.2955 14.0252 15.482 14.1024 15.6349 14.2276L15.7082 14.294L15.7746 14.3672C15.9207 14.5455 16.0013 14.7695 16.0011 15.002C16.0004 15.554 15.553 16.0011 15.0011 16.001C14.4492 16.0008 14.0015 15.5539 14.0011 15.002C14.0009 14.45 14.4481 14.0017 15.0001 14.001L15.0988 14.0059Z" fill="#202020"/>
</svg>
