<svg width="24" height="24" viewBox="0 0 24 24" fill="none" xmlns="http://www.w3.org/2000/svg">
<path d="M13.0004 9.99917H17.0021" stroke="#202020" stroke-width="1.5" stroke-linecap="round" stroke-linejoin="round"/>
<path d="M6.99792 9.72507L7.9173 10.5534L9.76807 8.88672" stroke="#202020" stroke-width="1.5" stroke-linecap="round" stroke-linejoin="round"/>
<path d="M10.9996 21.0038H7.99833C5.23576 21.0038 2.99625 18.7643 2.99625 16.0017V7.99836C2.99625 5.23579 5.23576 2.99628 7.99833 2.99628H16.0017C18.7642 2.99628 21.0037 5.23579 21.0037 7.99836V9.99919" stroke="#202020" stroke-width="1.5" stroke-linecap="round" stroke-linejoin="round"/>
<path d="M6.99792 14.7271L7.9173 15.5555L9.76807 13.8888" stroke="#202020" stroke-width="1.5" stroke-linecap="round" stroke-linejoin="round"/>
<path fill-rule="evenodd" clip-rule="evenodd" d="M18.0022 17.0021V17.0021C19.6597 17.0021 21.0034 18.3458 21.0034 20.0034V20.0034C21.0034 20.5559 20.5555 21.0038 20.003 21.0038H16.0013C15.4488 21.0038 15.0009 20.5559 15.0009 20.0034V20.0034C15.0009 18.3458 16.3446 17.0021 18.0022 17.0021Z" stroke="#202020" stroke-width="1.5" stroke-linecap="round" stroke-linejoin="round"/>
<path d="M18.2526 14.0012C18.2524 14.1392 18.1404 14.251 18.0024 14.251C17.8644 14.2509 17.7525 14.139 17.7524 14.001C17.7523 13.8629 17.8641 13.751 18.0022 13.7508C18.0686 13.7507 18.1324 13.777 18.1793 13.824C18.2263 13.871 18.2527 13.9347 18.2526 14.0012" stroke="#202020" stroke-width="1.5" stroke-linecap="round" stroke-linejoin="round"/>
<path d="M21.2539 15.0016C21.2537 15.1397 21.1417 15.2515 21.0036 15.2514C20.8656 15.2514 20.7537 15.1395 20.7536 15.0014C20.7536 14.8634 20.8654 14.7514 21.0034 14.7512C21.0699 14.7511 21.1336 14.7775 21.1806 14.8245C21.2276 14.8714 21.2539 14.9352 21.2539 15.0016" stroke="#202020" stroke-width="1.5" stroke-linecap="round" stroke-linejoin="round"/>
<path d="M15.2514 15.0016C15.2512 15.1397 15.1392 15.2515 15.0011 15.2514C14.8631 15.2514 14.7512 15.1395 14.7511 15.0014C14.7511 14.8634 14.8629 14.7514 15.0009 14.7512C15.0674 14.7511 15.1311 14.7775 15.1781 14.8245C15.2251 14.8714 15.2514 14.9352 15.2514 15.0016" stroke="#202020" stroke-width="1.5" stroke-linecap="round" stroke-linejoin="round"/>
</svg>
