<svg width="67" height="12" viewBox="293 17 67 12" fill="none" xmlns="http://www.w3.org/2000/svg">
  <!-- Signal bars -->
  <path d="M295.667 24.3336C296.219 24.3336 296.667 24.7813 296.667 25.3336V27.3336C296.666 27.8858 296.219 28.3336 295.667 28.3336H294.667C294.114 28.3336 293.667 27.8858 293.667 27.3336V25.3336C293.667 24.7813 294.114 24.3336 294.667 24.3336H295.667ZM300.334 22.3336C300.886 22.3338 301.334 22.7814 301.334 23.3336V27.3336C301.333 27.8856 300.886 28.3334 300.334 28.3336H299.334C298.781 28.3336 298.334 27.8858 298.334 27.3336V23.3336C298.334 22.7813 298.781 22.3336 299.334 22.3336H300.334ZM305 19.9996C305.552 19.9996 305.999 20.4475 306 20.9996V27.3336C305.999 27.8858 305.552 28.3336 305 28.3336H304C303.448 28.3334 303 27.8856 303 27.3336V20.9996C303 20.4476 303.448 19.9998 304 19.9996H305ZM309.667 17.6666C310.219 17.6666 310.667 18.1143 310.667 18.6666V27.3336C310.666 27.8858 310.219 28.3336 309.667 28.3336H308.667C308.114 28.3336 307.667 27.8858 307.667 27.3336V18.6666C307.667 18.1143 308.114 17.6666 308.667 17.6666H309.667Z" fill="#333333"/>
  <!-- WiFi -->
  <path fill-rule="evenodd" clip-rule="evenodd" d="M321.12 25.7313C322.396 24.6524 324.265 24.6524 325.54 25.7313C325.604 25.7893 325.641 25.8714 325.643 25.9578C325.645 26.0443 325.611 26.1277 325.549 26.1883L323.552 28.2039C323.494 28.2631 323.414 28.2967 323.33 28.2967C323.247 28.2967 323.167 28.2631 323.109 28.2039L321.111 26.1883C321.049 26.1277 321.015 26.0442 321.017 25.9578C321.019 25.8714 321.056 25.7892 321.12 25.7313ZM318.455 23.0418C321.204 20.4858 325.459 20.4858 328.207 23.0418C328.269 23.1017 328.305 23.1842 328.306 23.2703C328.307 23.3565 328.273 23.4396 328.212 23.5008L327.058 24.6678C326.939 24.7869 326.746 24.7895 326.624 24.6736C325.722 23.8565 324.548 23.4041 323.33 23.4041C322.114 23.4046 320.94 23.857 320.038 24.6736C319.916 24.7895 319.724 24.7869 319.605 24.6678L318.451 23.5008C318.39 23.4397 318.356 23.3564 318.357 23.2703C318.358 23.1842 318.393 23.1016 318.455 23.0418ZM315.79 20.3602C320.006 16.321 326.656 16.3207 330.87 20.3602C330.931 20.4201 330.966 20.5022 330.966 20.5877C330.967 20.6733 330.933 20.7555 330.872 20.8162L329.716 21.9832C329.597 22.1027 329.404 22.1039 329.284 21.9861C327.678 20.4594 325.546 19.6083 323.33 19.6082C321.114 19.6082 318.982 20.4593 317.376 21.9861C317.256 22.1041 317.063 22.1029 316.944 21.9832L315.787 20.8162C315.727 20.7554 315.693 20.6733 315.694 20.5877C315.694 20.5022 315.729 20.4201 315.79 20.3602Z" fill="#333333"/>
  <!-- Battery -->
  <path opacity="0.35" d="M338.667 17.8334H355.333C356.53 17.8334 357.5 18.8037 357.5 20.0004V26.0004C357.5 27.1968 356.53 28.1664 355.333 28.1664H338.667C337.47 28.1664 336.5 27.1968 336.5 26.0004V20.0004L336.511 19.7787C336.622 18.686 337.545 17.8334 338.667 17.8334Z" stroke="#333333"/>
  <path opacity="0.4" d="M359 21V25C359.805 24.6613 360.328 23.8732 360.328 23C360.328 22.1269 359.805 21.3388 359 21Z" fill="#333333"/>
  <path d="M338 20.6667C338 19.9303 338.597 19.3334 339.333 19.3334H354.667C355.403 19.3334 356 19.9303 356 20.6667V25.3334C356 26.0698 355.403 26.6667 354.667 26.6667H339.333C338.597 26.6667 338 26.0698 338 25.3334V20.6667Z" fill="#333333"/>
</svg>
