<svg width="375" height="38" viewBox="0 0 375 38" fill="none" xmlns="http://www.w3.org/2000/svg">
<rect width="375" height="38" fill="#F7F7F7"/>
<path opacity="0.35" d="M338.667 17.8334H355.333C356.53 17.8334 357.5 18.8037 357.5 20.0004V26.0004C357.5 27.1968 356.53 28.1664 355.333 28.1664H338.667C337.47 28.1664 336.5 27.1968 336.5 26.0004V20.0004L336.511 19.7787C336.622 18.686 337.545 17.8334 338.667 17.8334Z" stroke="#333333"/>
<path opacity="0.4" d="M359 21V25C359.805 24.6613 360.328 23.8732 360.328 23C360.328 22.1269 359.805 21.3388 359 21Z" fill="#333333"/>
<path d="M338 20.6667C338 19.9303 338.597 19.3334 339.333 19.3334H354.667C355.403 19.3334 356 19.9303 356 20.6667V25.3334C356 26.0698 355.403 26.6667 354.667 26.6667H339.333C338.597 26.6667 338 26.0698 338 25.3334V20.6667Z" fill="#333333"/>
<path fill-rule="evenodd" clip-rule="evenodd" d="M321.12 25.7313C322.396 24.6524 324.265 24.6524 325.54 25.7313C325.604 25.7893 325.641 25.8714 325.643 25.9578C325.645 26.0443 325.611 26.1277 325.549 26.1883L323.552 28.2039C323.494 28.2631 323.414 28.2967 323.33 28.2967C323.247 28.2967 323.167 28.2631 323.109 28.2039L321.111 26.1883C321.049 26.1277 321.015 26.0442 321.017 25.9578C321.019 25.8714 321.056 25.7892 321.12 25.7313ZM318.455 23.0418C321.204 20.4858 325.459 20.4858 328.207 23.0418C328.269 23.1017 328.305 23.1842 328.306 23.2703C328.307 23.3565 328.273 23.4396 328.212 23.5008L327.058 24.6678C326.939 24.7869 326.746 24.7895 326.624 24.6736C325.722 23.8565 324.548 23.4041 323.33 23.4041C322.114 23.4046 320.94 23.857 320.038 24.6736C319.916 24.7895 319.724 24.7869 319.605 24.6678L318.451 23.5008C318.39 23.4397 318.356 23.3564 318.357 23.2703C318.358 23.1842 318.393 23.1016 318.455 23.0418ZM315.79 20.3602C320.006 16.321 326.656 16.3207 330.87 20.3602C330.931 20.4201 330.966 20.5022 330.966 20.5877C330.967 20.6733 330.933 20.7555 330.872 20.8162L329.716 21.9832C329.597 22.1027 329.404 22.1039 329.284 21.9861C327.678 20.4594 325.546 19.6083 323.33 19.6082C321.114 19.6082 318.982 20.4593 317.376 21.9861C317.256 22.1041 317.063 22.1029 316.944 21.9832L315.787 20.8162C315.727 20.7554 315.693 20.6733 315.694 20.5877C315.694 20.5022 315.729 20.4201 315.79 20.3602Z" fill="#333333"/>
<path d="M295.667 24.3336C296.219 24.3336 296.667 24.7813 296.667 25.3336V27.3336C296.666 27.8858 296.219 28.3336 295.667 28.3336H294.667C294.114 28.3336 293.667 27.8858 293.667 27.3336V25.3336C293.667 24.7813 294.114 24.3336 294.667 24.3336H295.667ZM300.334 22.3336C300.886 22.3338 301.334 22.7814 301.334 23.3336V27.3336C301.333 27.8856 300.886 28.3334 300.334 28.3336H299.334C298.781 28.3336 298.334 27.8858 298.334 27.3336V23.3336C298.334 22.7813 298.781 22.3336 299.334 22.3336H300.334ZM305 19.9996C305.552 19.9996 305.999 20.4475 306 20.9996V27.3336C305.999 27.8858 305.552 28.3336 305 28.3336H304C303.448 28.3334 303 27.8856 303 27.3336V20.9996C303 20.4476 303.448 19.9998 304 19.9996H305ZM309.667 17.6666C310.219 17.6666 310.667 18.1143 310.667 18.6666V27.3336C310.666 27.8858 310.219 28.3336 309.667 28.3336H308.667C308.114 28.3336 307.667 27.8858 307.667 27.3336V18.6666C307.667 18.1143 308.114 17.6666 308.667 17.6666H309.667Z" fill="#333333"/>
<path d="M37.3207 28.2563C40.0087 28.2563 41.6054 26.1543 41.6054 22.5947C41.6054 21.2544 41.349 20.1265 40.8583 19.2549C40.1479 17.8999 38.9247 17.1675 37.3793 17.1675C35.0795 17.1675 33.4535 18.7129 33.4535 20.8809C33.4535 22.917 34.9184 24.3965 36.9325 24.3965C38.1703 24.3965 39.1737 23.8179 39.6718 22.8145H39.6937C39.6937 22.8145 39.723 22.8145 39.7304 22.8145C39.745 22.8145 39.7963 22.8145 39.7963 22.8145C39.7963 25.2314 38.8808 26.6743 37.3354 26.6743C36.4271 26.6743 35.724 26.1763 35.4823 25.3779H33.6C33.9149 27.1138 35.3871 28.2563 37.3207 28.2563ZM37.3866 22.895C36.1708 22.895 35.3065 22.0308 35.3065 20.8223C35.3065 19.6431 36.2147 18.7422 37.3939 18.7422C38.5731 18.7422 39.4813 19.6577 39.4813 20.8516C39.4813 22.0308 38.5951 22.895 37.3866 22.895Z" fill="#333333"/>
<path d="M44.6965 28.1538C45.3923 28.1538 45.8684 27.6558 45.8684 26.9966C45.8684 26.3301 45.3923 25.8394 44.6965 25.8394C44.008 25.8394 43.5246 26.3301 43.5246 26.9966C43.5246 27.6558 44.008 28.1538 44.6965 28.1538ZM44.6965 22.6606C45.3923 22.6606 45.8684 22.1699 45.8684 21.5107C45.8684 20.8442 45.3923 20.3535 44.6965 20.3535C44.008 20.3535 43.5246 20.8442 43.5246 21.5107C43.5246 22.1699 44.008 22.6606 44.6965 22.6606Z" fill="#333333"/>
<path d="M52.7241 28H54.5332V26.0298H55.9614V24.4331H54.5332V17.4312H51.8672C49.9995 20.2437 48.5127 22.5947 47.5605 24.3452V26.0298H52.7241V28ZM49.311 24.3672C50.5415 22.1992 51.6401 20.4634 52.6509 18.9692H52.7534V24.4771H49.311V24.3672Z" fill="#333333"/>
<path d="M59.99 28H61.8797V17.4312H59.9974L57.2361 19.3647V21.1812L59.8655 19.3354H59.99V28Z" fill="#333333"/>
</svg>
