<svg width="36" height="36" viewBox="0 0 36 36" fill="none" xmlns="http://www.w3.org/2000/svg">
<g clip-path="url(#clip0_9_1921)">
<circle cx="18" cy="18" r="18" fill="#E9ECEF"/>
<path d="M24.222 11.5C25.2083 11.5 26 12.2401 26 13.147V23.853C26 24.7599 25.2083 25.5 24.222 25.5H11.778C10.7917 25.5 10 24.7599 10 23.853V13.147C10 12.2401 10.7917 11.5 11.778 11.5H14V10.5L14.0081 10.4102C14.0504 10.177 14.2547 10 14.5 10C14.776 10 15 10.224 15 10.5V11.5H21V10.5L21.0081 10.4102C21.0504 10.177 21.2547 10 21.5 10C21.776 10 22 10.224 22 10.5V11.5H24.222ZM25 16.5H11V23.853C11 24.1637 11.2768 24.4484 11.6685 24.4937L11.778 24.5H24.222C24.6705 24.5 25 24.192 25 23.853V16.5ZM14 12.5H11.778C11.3295 12.5 11 12.808 11 13.147V15.5H25V13.147C25 12.8363 24.7232 12.5516 24.3315 12.5063L24.222 12.5H22V13.5C22 13.776 21.776 14 21.5 14C21.224 14 21 13.776 21 13.5V12.5H15V13.5C15 13.776 14.776 14 14.5 14C14.224 14 14 13.776 14 13.5V12.5Z" fill="#202020"/>
</g>
<defs>
<clipPath id="clip0_9_1921">
<rect width="36" height="36" fill="white"/>
</clipPath>
</defs>
</svg>
