<svg width="40" height="40" viewBox="0 0 40 40" fill="none" xmlns="http://www.w3.org/2000/svg">
<rect x="0.5" y="0.5" width="39" height="39" rx="19.5" fill="white"/>
<rect x="0.5" y="0.5" width="39" height="39" rx="19.5" stroke="#E9ECEF"/>
<path d="M19.7221 12C21.7165 12 23.3333 13.6168 23.3333 15.6111C23.3333 17.6055 21.7165 19.2222 19.7221 19.2222C17.7277 19.2222 16.111 17.6055 16.111 15.6111C16.111 13.6168 17.7277 12 19.7221 12ZM22.833 21C24.8278 21 26.444 22.6165 26.444 24.611V25.722C26.444 26.4279 25.8724 27 25.167 27H14.278C13.5719 27 13 26.4281 13 25.722V24.611C13 22.6168 14.6169 21 16.611 21H22.833Z" fill="#202020"/>
</svg>
